<mxfile host="app.diagrams.net" modified="2023-07-22T09:04:09.593Z" agent="Mozilla/5.0 (Windows NT 10.0; Win64; x64) AppleWebKit/537.36 (KHTML, like Gecko) Chrome/114.0.0.0 Safari/537.36" etag="R0iRY_rdKv67FWn-lDRo" version="21.6.5" type="github">
  <diagram id="C5RBs43oDa-KdzZeNtuy" name="Page-1">
    <mxGraphModel dx="880" dy="462" grid="1" gridSize="10" guides="1" tooltips="1" connect="1" arrows="1" fold="1" page="1" pageScale="1" pageWidth="827" pageHeight="1169" math="0" shadow="0">
      <root>
        <mxCell id="WIyWlLk6GJQsqaUBKTNV-0" />
        <mxCell id="WIyWlLk6GJQsqaUBKTNV-1" parent="WIyWlLk6GJQsqaUBKTNV-0" />
        <mxCell id="AFjkLE0SlQJJLJoKXEfr-59" value="" style="edgeStyle=orthogonalEdgeStyle;rounded=0;orthogonalLoop=1;jettySize=auto;html=1;" edge="1" parent="WIyWlLk6GJQsqaUBKTNV-1" source="WIyWlLk6GJQsqaUBKTNV-3" target="AFjkLE0SlQJJLJoKXEfr-1">
          <mxGeometry relative="1" as="geometry" />
        </mxCell>
        <mxCell id="WIyWlLk6GJQsqaUBKTNV-3" value="Game Start&lt;br&gt;" style="rounded=1;whiteSpace=wrap;html=1;fontSize=12;glass=0;strokeWidth=1;shadow=0;fillColor=#60a917;strokeColor=#2D7600;fontColor=#ffffff;" parent="WIyWlLk6GJQsqaUBKTNV-1" vertex="1">
          <mxGeometry y="90" width="90" height="40" as="geometry" />
        </mxCell>
        <mxCell id="AFjkLE0SlQJJLJoKXEfr-4" value="" style="edgeStyle=orthogonalEdgeStyle;rounded=0;orthogonalLoop=1;jettySize=auto;html=1;" edge="1" parent="WIyWlLk6GJQsqaUBKTNV-1" source="AFjkLE0SlQJJLJoKXEfr-1" target="AFjkLE0SlQJJLJoKXEfr-3">
          <mxGeometry relative="1" as="geometry" />
        </mxCell>
        <mxCell id="AFjkLE0SlQJJLJoKXEfr-1" value="Logo Prodi &amp;amp; STMM" style="rounded=1;whiteSpace=wrap;html=1;fontSize=12;glass=0;strokeWidth=1;shadow=0;" vertex="1" parent="WIyWlLk6GJQsqaUBKTNV-1">
          <mxGeometry x="120" y="90" width="120" height="40" as="geometry" />
        </mxCell>
        <mxCell id="AFjkLE0SlQJJLJoKXEfr-58" value="" style="edgeStyle=orthogonalEdgeStyle;rounded=0;orthogonalLoop=1;jettySize=auto;html=1;" edge="1" parent="WIyWlLk6GJQsqaUBKTNV-1" source="AFjkLE0SlQJJLJoKXEfr-3" target="AFjkLE0SlQJJLJoKXEfr-57">
          <mxGeometry relative="1" as="geometry" />
        </mxCell>
        <mxCell id="AFjkLE0SlQJJLJoKXEfr-3" value="Loading Screen" style="rounded=1;whiteSpace=wrap;html=1;fontSize=12;glass=0;strokeWidth=1;shadow=0;" vertex="1" parent="WIyWlLk6GJQsqaUBKTNV-1">
          <mxGeometry x="120" y="170" width="120" height="40" as="geometry" />
        </mxCell>
        <mxCell id="AFjkLE0SlQJJLJoKXEfr-23" style="edgeStyle=orthogonalEdgeStyle;rounded=0;orthogonalLoop=1;jettySize=auto;html=1;exitX=0.5;exitY=1;exitDx=0;exitDy=0;" edge="1" parent="WIyWlLk6GJQsqaUBKTNV-1" source="AFjkLE0SlQJJLJoKXEfr-5" target="AFjkLE0SlQJJLJoKXEfr-10">
          <mxGeometry relative="1" as="geometry" />
        </mxCell>
        <mxCell id="AFjkLE0SlQJJLJoKXEfr-24" style="edgeStyle=orthogonalEdgeStyle;rounded=0;orthogonalLoop=1;jettySize=auto;html=1;exitX=0.5;exitY=1;exitDx=0;exitDy=0;" edge="1" parent="WIyWlLk6GJQsqaUBKTNV-1" source="AFjkLE0SlQJJLJoKXEfr-5" target="AFjkLE0SlQJJLJoKXEfr-7">
          <mxGeometry relative="1" as="geometry" />
        </mxCell>
        <mxCell id="AFjkLE0SlQJJLJoKXEfr-25" style="edgeStyle=orthogonalEdgeStyle;rounded=0;orthogonalLoop=1;jettySize=auto;html=1;exitX=0.5;exitY=1;exitDx=0;exitDy=0;entryX=0.5;entryY=0;entryDx=0;entryDy=0;" edge="1" parent="WIyWlLk6GJQsqaUBKTNV-1" source="AFjkLE0SlQJJLJoKXEfr-5" target="AFjkLE0SlQJJLJoKXEfr-9">
          <mxGeometry relative="1" as="geometry" />
        </mxCell>
        <mxCell id="AFjkLE0SlQJJLJoKXEfr-103" style="edgeStyle=orthogonalEdgeStyle;rounded=0;orthogonalLoop=1;jettySize=auto;html=1;exitX=0.5;exitY=1;exitDx=0;exitDy=0;entryX=0;entryY=0.5;entryDx=0;entryDy=0;" edge="1" parent="WIyWlLk6GJQsqaUBKTNV-1" source="AFjkLE0SlQJJLJoKXEfr-5" target="AFjkLE0SlQJJLJoKXEfr-46">
          <mxGeometry relative="1" as="geometry">
            <Array as="points">
              <mxPoint x="180" y="460" />
              <mxPoint x="850" y="460" />
              <mxPoint x="850" y="180" />
            </Array>
          </mxGeometry>
        </mxCell>
        <mxCell id="AFjkLE0SlQJJLJoKXEfr-5" value="Main Menu" style="rounded=1;whiteSpace=wrap;html=1;fontSize=12;glass=0;strokeWidth=1;shadow=0;" vertex="1" parent="WIyWlLk6GJQsqaUBKTNV-1">
          <mxGeometry x="120" y="380" width="120" height="40" as="geometry" />
        </mxCell>
        <mxCell id="AFjkLE0SlQJJLJoKXEfr-35" value="" style="edgeStyle=orthogonalEdgeStyle;rounded=0;orthogonalLoop=1;jettySize=auto;html=1;entryX=1;entryY=0.5;entryDx=0;entryDy=0;" edge="1" parent="WIyWlLk6GJQsqaUBKTNV-1" source="AFjkLE0SlQJJLJoKXEfr-7" target="AFjkLE0SlQJJLJoKXEfr-34">
          <mxGeometry relative="1" as="geometry" />
        </mxCell>
        <mxCell id="AFjkLE0SlQJJLJoKXEfr-38" style="edgeStyle=orthogonalEdgeStyle;rounded=0;orthogonalLoop=1;jettySize=auto;html=1;exitX=0.5;exitY=1;exitDx=0;exitDy=0;entryX=1;entryY=0.5;entryDx=0;entryDy=0;" edge="1" parent="WIyWlLk6GJQsqaUBKTNV-1" source="AFjkLE0SlQJJLJoKXEfr-7" target="AFjkLE0SlQJJLJoKXEfr-36">
          <mxGeometry relative="1" as="geometry" />
        </mxCell>
        <mxCell id="AFjkLE0SlQJJLJoKXEfr-39" style="edgeStyle=orthogonalEdgeStyle;rounded=0;orthogonalLoop=1;jettySize=auto;html=1;exitX=0.5;exitY=1;exitDx=0;exitDy=0;entryX=1;entryY=0.5;entryDx=0;entryDy=0;" edge="1" parent="WIyWlLk6GJQsqaUBKTNV-1" source="AFjkLE0SlQJJLJoKXEfr-7" target="AFjkLE0SlQJJLJoKXEfr-37">
          <mxGeometry relative="1" as="geometry" />
        </mxCell>
        <mxCell id="AFjkLE0SlQJJLJoKXEfr-7" value="Setting" style="rounded=1;whiteSpace=wrap;html=1;fontSize=12;glass=0;strokeWidth=1;shadow=0;" vertex="1" parent="WIyWlLk6GJQsqaUBKTNV-1">
          <mxGeometry x="260" y="500" width="120" height="40" as="geometry" />
        </mxCell>
        <mxCell id="AFjkLE0SlQJJLJoKXEfr-12" value="" style="edgeStyle=orthogonalEdgeStyle;rounded=0;orthogonalLoop=1;jettySize=auto;html=1;" edge="1" parent="WIyWlLk6GJQsqaUBKTNV-1" source="AFjkLE0SlQJJLJoKXEfr-9" target="AFjkLE0SlQJJLJoKXEfr-11">
          <mxGeometry relative="1" as="geometry" />
        </mxCell>
        <mxCell id="AFjkLE0SlQJJLJoKXEfr-9" value="Campain" style="rounded=1;whiteSpace=wrap;html=1;fontSize=12;glass=0;strokeWidth=1;shadow=0;" vertex="1" parent="WIyWlLk6GJQsqaUBKTNV-1">
          <mxGeometry x="400" y="500" width="120" height="40" as="geometry" />
        </mxCell>
        <mxCell id="AFjkLE0SlQJJLJoKXEfr-18" value="" style="edgeStyle=orthogonalEdgeStyle;rounded=0;orthogonalLoop=1;jettySize=auto;html=1;" edge="1" parent="WIyWlLk6GJQsqaUBKTNV-1" source="AFjkLE0SlQJJLJoKXEfr-10" target="AFjkLE0SlQJJLJoKXEfr-17">
          <mxGeometry relative="1" as="geometry" />
        </mxCell>
        <mxCell id="AFjkLE0SlQJJLJoKXEfr-10" value="Quit" style="rounded=1;whiteSpace=wrap;html=1;fontSize=12;glass=0;strokeWidth=1;shadow=0;" vertex="1" parent="WIyWlLk6GJQsqaUBKTNV-1">
          <mxGeometry x="120" y="500" width="120" height="40" as="geometry" />
        </mxCell>
        <mxCell id="AFjkLE0SlQJJLJoKXEfr-14" value="" style="edgeStyle=orthogonalEdgeStyle;rounded=0;orthogonalLoop=1;jettySize=auto;html=1;" edge="1" parent="WIyWlLk6GJQsqaUBKTNV-1" source="AFjkLE0SlQJJLJoKXEfr-11" target="AFjkLE0SlQJJLJoKXEfr-13">
          <mxGeometry relative="1" as="geometry" />
        </mxCell>
        <mxCell id="AFjkLE0SlQJJLJoKXEfr-41" style="edgeStyle=orthogonalEdgeStyle;rounded=0;orthogonalLoop=1;jettySize=auto;html=1;exitX=0.5;exitY=1;exitDx=0;exitDy=0;entryX=0.5;entryY=0;entryDx=0;entryDy=0;" edge="1" parent="WIyWlLk6GJQsqaUBKTNV-1" source="AFjkLE0SlQJJLJoKXEfr-11" target="AFjkLE0SlQJJLJoKXEfr-40">
          <mxGeometry relative="1" as="geometry" />
        </mxCell>
        <mxCell id="AFjkLE0SlQJJLJoKXEfr-43" style="edgeStyle=orthogonalEdgeStyle;rounded=0;orthogonalLoop=1;jettySize=auto;html=1;exitX=0.5;exitY=1;exitDx=0;exitDy=0;entryX=0.5;entryY=0;entryDx=0;entryDy=0;" edge="1" parent="WIyWlLk6GJQsqaUBKTNV-1" source="AFjkLE0SlQJJLJoKXEfr-11" target="AFjkLE0SlQJJLJoKXEfr-42">
          <mxGeometry relative="1" as="geometry" />
        </mxCell>
        <mxCell id="AFjkLE0SlQJJLJoKXEfr-11" value="Level Selection" style="rounded=1;whiteSpace=wrap;html=1;fontSize=12;glass=0;strokeWidth=1;shadow=0;" vertex="1" parent="WIyWlLk6GJQsqaUBKTNV-1">
          <mxGeometry x="400" y="580" width="120" height="40" as="geometry" />
        </mxCell>
        <mxCell id="AFjkLE0SlQJJLJoKXEfr-16" value="" style="edgeStyle=orthogonalEdgeStyle;rounded=0;orthogonalLoop=1;jettySize=auto;html=1;" edge="1" parent="WIyWlLk6GJQsqaUBKTNV-1" source="AFjkLE0SlQJJLJoKXEfr-13" target="AFjkLE0SlQJJLJoKXEfr-15">
          <mxGeometry relative="1" as="geometry" />
        </mxCell>
        <mxCell id="AFjkLE0SlQJJLJoKXEfr-13" value="Level 1" style="rounded=1;whiteSpace=wrap;html=1;fontSize=12;glass=0;strokeWidth=1;shadow=0;" vertex="1" parent="WIyWlLk6GJQsqaUBKTNV-1">
          <mxGeometry x="400" y="660" width="120" height="40" as="geometry" />
        </mxCell>
        <mxCell id="AFjkLE0SlQJJLJoKXEfr-55" style="edgeStyle=orthogonalEdgeStyle;rounded=0;orthogonalLoop=1;jettySize=auto;html=1;exitX=1;exitY=0.5;exitDx=0;exitDy=0;" edge="1" parent="WIyWlLk6GJQsqaUBKTNV-1" source="AFjkLE0SlQJJLJoKXEfr-15" target="AFjkLE0SlQJJLJoKXEfr-54">
          <mxGeometry relative="1" as="geometry" />
        </mxCell>
        <mxCell id="AFjkLE0SlQJJLJoKXEfr-15" value="Info Level" style="rounded=1;whiteSpace=wrap;html=1;fontSize=12;glass=0;strokeWidth=1;shadow=0;" vertex="1" parent="WIyWlLk6GJQsqaUBKTNV-1">
          <mxGeometry x="360" y="780" width="120" height="40" as="geometry" />
        </mxCell>
        <mxCell id="AFjkLE0SlQJJLJoKXEfr-20" value="" style="edgeStyle=orthogonalEdgeStyle;rounded=0;orthogonalLoop=1;jettySize=auto;html=1;" edge="1" parent="WIyWlLk6GJQsqaUBKTNV-1" source="AFjkLE0SlQJJLJoKXEfr-17" target="AFjkLE0SlQJJLJoKXEfr-19">
          <mxGeometry relative="1" as="geometry" />
        </mxCell>
        <mxCell id="AFjkLE0SlQJJLJoKXEfr-21" value="Yes" style="edgeLabel;html=1;align=center;verticalAlign=middle;resizable=0;points=[];" vertex="1" connectable="0" parent="AFjkLE0SlQJJLJoKXEfr-20">
          <mxGeometry x="0.24" y="1" relative="1" as="geometry">
            <mxPoint as="offset" />
          </mxGeometry>
        </mxCell>
        <mxCell id="AFjkLE0SlQJJLJoKXEfr-22" style="edgeStyle=orthogonalEdgeStyle;rounded=0;orthogonalLoop=1;jettySize=auto;html=1;exitX=0;exitY=0.5;exitDx=0;exitDy=0;entryX=0;entryY=0.5;entryDx=0;entryDy=0;" edge="1" parent="WIyWlLk6GJQsqaUBKTNV-1" source="AFjkLE0SlQJJLJoKXEfr-17" target="AFjkLE0SlQJJLJoKXEfr-5">
          <mxGeometry relative="1" as="geometry" />
        </mxCell>
        <mxCell id="AFjkLE0SlQJJLJoKXEfr-17" value="Are you sure?&lt;br&gt;" style="rhombus;whiteSpace=wrap;html=1;rounded=1;glass=0;strokeWidth=1;shadow=0;" vertex="1" parent="WIyWlLk6GJQsqaUBKTNV-1">
          <mxGeometry x="140" y="560" width="80" height="80" as="geometry" />
        </mxCell>
        <mxCell id="AFjkLE0SlQJJLJoKXEfr-19" value="Quit game" style="whiteSpace=wrap;html=1;rounded=1;glass=0;strokeWidth=1;shadow=0;" vertex="1" parent="WIyWlLk6GJQsqaUBKTNV-1">
          <mxGeometry x="20" y="685" width="120" height="30" as="geometry" />
        </mxCell>
        <mxCell id="AFjkLE0SlQJJLJoKXEfr-34" value="Music" style="rounded=1;whiteSpace=wrap;html=1;fontSize=12;glass=0;strokeWidth=1;shadow=0;" vertex="1" parent="WIyWlLk6GJQsqaUBKTNV-1">
          <mxGeometry x="170" y="675" width="120" height="40" as="geometry" />
        </mxCell>
        <mxCell id="AFjkLE0SlQJJLJoKXEfr-36" value="Sound Effect" style="rounded=1;whiteSpace=wrap;html=1;fontSize=12;glass=0;strokeWidth=1;shadow=0;" vertex="1" parent="WIyWlLk6GJQsqaUBKTNV-1">
          <mxGeometry x="170" y="730" width="120" height="40" as="geometry" />
        </mxCell>
        <mxCell id="AFjkLE0SlQJJLJoKXEfr-37" value="Kredit" style="rounded=1;whiteSpace=wrap;html=1;fontSize=12;glass=0;strokeWidth=1;shadow=0;" vertex="1" parent="WIyWlLk6GJQsqaUBKTNV-1">
          <mxGeometry x="170" y="790" width="120" height="40" as="geometry" />
        </mxCell>
        <mxCell id="AFjkLE0SlQJJLJoKXEfr-40" value="Level 2" style="rounded=1;whiteSpace=wrap;html=1;fontSize=12;glass=0;strokeWidth=1;shadow=0;" vertex="1" parent="WIyWlLk6GJQsqaUBKTNV-1">
          <mxGeometry x="540" y="660" width="120" height="40" as="geometry" />
        </mxCell>
        <mxCell id="AFjkLE0SlQJJLJoKXEfr-42" value="Level 3" style="rounded=1;whiteSpace=wrap;html=1;fontSize=12;glass=0;strokeWidth=1;shadow=0;" vertex="1" parent="WIyWlLk6GJQsqaUBKTNV-1">
          <mxGeometry x="680" y="660" width="120" height="40" as="geometry" />
        </mxCell>
        <mxCell id="AFjkLE0SlQJJLJoKXEfr-105" value="" style="edgeStyle=orthogonalEdgeStyle;rounded=0;orthogonalLoop=1;jettySize=auto;html=1;" edge="1" parent="WIyWlLk6GJQsqaUBKTNV-1" source="AFjkLE0SlQJJLJoKXEfr-46" target="AFjkLE0SlQJJLJoKXEfr-104">
          <mxGeometry relative="1" as="geometry" />
        </mxCell>
        <mxCell id="AFjkLE0SlQJJLJoKXEfr-46" value="Workshop" style="rounded=1;whiteSpace=wrap;html=1;fontSize=12;glass=0;strokeWidth=1;shadow=0;" vertex="1" parent="WIyWlLk6GJQsqaUBKTNV-1">
          <mxGeometry x="870" y="160" width="120" height="40" as="geometry" />
        </mxCell>
        <mxCell id="AFjkLE0SlQJJLJoKXEfr-51" value="- Preview lokasi&amp;nbsp;&lt;br&gt;- Backstory lokasi&lt;br&gt;- Info Boss (kit &amp;amp; abylity)" style="rounded=0;whiteSpace=wrap;html=1;align=left;" vertex="1" parent="WIyWlLk6GJQsqaUBKTNV-1">
          <mxGeometry x="360" y="820" width="170" height="60" as="geometry" />
        </mxCell>
        <mxCell id="AFjkLE0SlQJJLJoKXEfr-96" style="edgeStyle=orthogonalEdgeStyle;rounded=0;orthogonalLoop=1;jettySize=auto;html=1;exitX=1;exitY=0.5;exitDx=0;exitDy=0;entryX=1;entryY=0.5;entryDx=0;entryDy=0;" edge="1" parent="WIyWlLk6GJQsqaUBKTNV-1" source="AFjkLE0SlQJJLJoKXEfr-54" target="AFjkLE0SlQJJLJoKXEfr-95">
          <mxGeometry relative="1" as="geometry">
            <Array as="points">
              <mxPoint x="790" y="800" />
              <mxPoint x="790" y="940" />
            </Array>
          </mxGeometry>
        </mxCell>
        <mxCell id="AFjkLE0SlQJJLJoKXEfr-54" value="Gear Setting" style="rounded=1;whiteSpace=wrap;html=1;fontSize=12;glass=0;strokeWidth=1;shadow=0;" vertex="1" parent="WIyWlLk6GJQsqaUBKTNV-1">
          <mxGeometry x="600" y="780" width="120" height="40" as="geometry" />
        </mxCell>
        <mxCell id="AFjkLE0SlQJJLJoKXEfr-56" value="- Penyusunan 4 ally&lt;br&gt;- Pengaturan Equip Senjata&lt;br&gt;- pengaturan Ammo yang dibawa." style="rounded=0;whiteSpace=wrap;html=1;align=left;" vertex="1" parent="WIyWlLk6GJQsqaUBKTNV-1">
          <mxGeometry x="600" y="820" width="170" height="60" as="geometry" />
        </mxCell>
        <mxCell id="AFjkLE0SlQJJLJoKXEfr-60" value="" style="edgeStyle=orthogonalEdgeStyle;rounded=0;orthogonalLoop=1;jettySize=auto;html=1;" edge="1" parent="WIyWlLk6GJQsqaUBKTNV-1" source="AFjkLE0SlQJJLJoKXEfr-57" target="AFjkLE0SlQJJLJoKXEfr-5">
          <mxGeometry relative="1" as="geometry" />
        </mxCell>
        <mxCell id="AFjkLE0SlQJJLJoKXEfr-62" value="" style="edgeStyle=orthogonalEdgeStyle;rounded=0;orthogonalLoop=1;jettySize=auto;html=1;" edge="1" parent="WIyWlLk6GJQsqaUBKTNV-1" source="AFjkLE0SlQJJLJoKXEfr-57" target="AFjkLE0SlQJJLJoKXEfr-61">
          <mxGeometry relative="1" as="geometry" />
        </mxCell>
        <mxCell id="AFjkLE0SlQJJLJoKXEfr-63" value="Yes" style="edgeLabel;html=1;align=center;verticalAlign=middle;resizable=0;points=[];" vertex="1" connectable="0" parent="AFjkLE0SlQJJLJoKXEfr-62">
          <mxGeometry x="-0.2333" y="-2" relative="1" as="geometry">
            <mxPoint as="offset" />
          </mxGeometry>
        </mxCell>
        <mxCell id="AFjkLE0SlQJJLJoKXEfr-57" value="Pertama kali buka" style="rhombus;whiteSpace=wrap;html=1;rounded=1;glass=0;strokeWidth=1;shadow=0;" vertex="1" parent="WIyWlLk6GJQsqaUBKTNV-1">
          <mxGeometry x="140" y="240" width="80" height="80" as="geometry" />
        </mxCell>
        <mxCell id="AFjkLE0SlQJJLJoKXEfr-65" value="" style="edgeStyle=orthogonalEdgeStyle;rounded=0;orthogonalLoop=1;jettySize=auto;html=1;" edge="1" parent="WIyWlLk6GJQsqaUBKTNV-1" source="AFjkLE0SlQJJLJoKXEfr-61" target="AFjkLE0SlQJJLJoKXEfr-64">
          <mxGeometry relative="1" as="geometry" />
        </mxCell>
        <mxCell id="AFjkLE0SlQJJLJoKXEfr-61" value="PopUp Question&lt;br&gt;&quot;Want to do tutorials?&lt;span style=&quot;background-color: initial;&quot;&gt;&quot;&lt;/span&gt;" style="whiteSpace=wrap;html=1;rounded=1;glass=0;strokeWidth=1;shadow=0;" vertex="1" parent="WIyWlLk6GJQsqaUBKTNV-1">
          <mxGeometry x="280" y="250" width="130" height="60" as="geometry" />
        </mxCell>
        <mxCell id="AFjkLE0SlQJJLJoKXEfr-66" style="edgeStyle=orthogonalEdgeStyle;rounded=0;orthogonalLoop=1;jettySize=auto;html=1;exitX=0.5;exitY=1;exitDx=0;exitDy=0;entryX=1;entryY=0.5;entryDx=0;entryDy=0;" edge="1" parent="WIyWlLk6GJQsqaUBKTNV-1" source="AFjkLE0SlQJJLJoKXEfr-64" target="AFjkLE0SlQJJLJoKXEfr-5">
          <mxGeometry relative="1" as="geometry" />
        </mxCell>
        <mxCell id="AFjkLE0SlQJJLJoKXEfr-73" style="edgeStyle=orthogonalEdgeStyle;rounded=0;orthogonalLoop=1;jettySize=auto;html=1;exitX=0.5;exitY=0;exitDx=0;exitDy=0;entryX=0;entryY=0.5;entryDx=0;entryDy=0;" edge="1" parent="WIyWlLk6GJQsqaUBKTNV-1" source="AFjkLE0SlQJJLJoKXEfr-64" target="AFjkLE0SlQJJLJoKXEfr-67">
          <mxGeometry relative="1" as="geometry" />
        </mxCell>
        <mxCell id="AFjkLE0SlQJJLJoKXEfr-74" value="Yes" style="edgeLabel;html=1;align=center;verticalAlign=middle;resizable=0;points=[];" vertex="1" connectable="0" parent="AFjkLE0SlQJJLJoKXEfr-73">
          <mxGeometry x="-0.6846" relative="1" as="geometry">
            <mxPoint as="offset" />
          </mxGeometry>
        </mxCell>
        <mxCell id="AFjkLE0SlQJJLJoKXEfr-64" value="Yes / No" style="rhombus;whiteSpace=wrap;html=1;rounded=1;glass=0;strokeWidth=1;shadow=0;" vertex="1" parent="WIyWlLk6GJQsqaUBKTNV-1">
          <mxGeometry x="440" y="240" width="80" height="80" as="geometry" />
        </mxCell>
        <mxCell id="AFjkLE0SlQJJLJoKXEfr-78" value="" style="edgeStyle=orthogonalEdgeStyle;rounded=0;orthogonalLoop=1;jettySize=auto;html=1;" edge="1" parent="WIyWlLk6GJQsqaUBKTNV-1" source="AFjkLE0SlQJJLJoKXEfr-67" target="AFjkLE0SlQJJLJoKXEfr-77">
          <mxGeometry relative="1" as="geometry" />
        </mxCell>
        <mxCell id="AFjkLE0SlQJJLJoKXEfr-81" value="" style="edgeStyle=orthogonalEdgeStyle;rounded=0;orthogonalLoop=1;jettySize=auto;html=1;" edge="1" parent="WIyWlLk6GJQsqaUBKTNV-1" source="AFjkLE0SlQJJLJoKXEfr-67" target="AFjkLE0SlQJJLJoKXEfr-80">
          <mxGeometry relative="1" as="geometry" />
        </mxCell>
        <mxCell id="AFjkLE0SlQJJLJoKXEfr-67" value="Play Tutorial on Prototype Map" style="whiteSpace=wrap;html=1;rounded=1;glass=0;strokeWidth=1;shadow=0;" vertex="1" parent="WIyWlLk6GJQsqaUBKTNV-1">
          <mxGeometry x="510" y="20" width="120" height="60" as="geometry" />
        </mxCell>
        <mxCell id="AFjkLE0SlQJJLJoKXEfr-79" style="edgeStyle=orthogonalEdgeStyle;rounded=0;orthogonalLoop=1;jettySize=auto;html=1;exitX=0.5;exitY=1;exitDx=0;exitDy=0;entryX=1;entryY=0.5;entryDx=0;entryDy=0;" edge="1" parent="WIyWlLk6GJQsqaUBKTNV-1" source="AFjkLE0SlQJJLJoKXEfr-77" target="AFjkLE0SlQJJLJoKXEfr-5">
          <mxGeometry relative="1" as="geometry" />
        </mxCell>
        <mxCell id="AFjkLE0SlQJJLJoKXEfr-77" value="Finished Tutorials" style="whiteSpace=wrap;html=1;rounded=1;glass=0;strokeWidth=1;shadow=0;" vertex="1" parent="WIyWlLk6GJQsqaUBKTNV-1">
          <mxGeometry x="700" y="20" width="120" height="60" as="geometry" />
        </mxCell>
        <mxCell id="AFjkLE0SlQJJLJoKXEfr-84" style="edgeStyle=orthogonalEdgeStyle;rounded=0;orthogonalLoop=1;jettySize=auto;html=1;exitX=0.5;exitY=1;exitDx=0;exitDy=0;entryX=0;entryY=0.5;entryDx=0;entryDy=0;" edge="1" parent="WIyWlLk6GJQsqaUBKTNV-1" source="AFjkLE0SlQJJLJoKXEfr-80" target="AFjkLE0SlQJJLJoKXEfr-82">
          <mxGeometry relative="1" as="geometry" />
        </mxCell>
        <mxCell id="AFjkLE0SlQJJLJoKXEfr-86" style="edgeStyle=orthogonalEdgeStyle;rounded=0;orthogonalLoop=1;jettySize=auto;html=1;exitX=0.5;exitY=1;exitDx=0;exitDy=0;entryX=0;entryY=0.5;entryDx=0;entryDy=0;" edge="1" parent="WIyWlLk6GJQsqaUBKTNV-1" source="AFjkLE0SlQJJLJoKXEfr-80" target="AFjkLE0SlQJJLJoKXEfr-85">
          <mxGeometry relative="1" as="geometry" />
        </mxCell>
        <mxCell id="AFjkLE0SlQJJLJoKXEfr-80" value="Pause Menu" style="whiteSpace=wrap;html=1;rounded=1;glass=0;strokeWidth=1;shadow=0;" vertex="1" parent="WIyWlLk6GJQsqaUBKTNV-1">
          <mxGeometry x="510" y="100" width="120" height="40" as="geometry" />
        </mxCell>
        <mxCell id="AFjkLE0SlQJJLJoKXEfr-88" style="edgeStyle=orthogonalEdgeStyle;rounded=0;orthogonalLoop=1;jettySize=auto;html=1;exitX=0.5;exitY=0;exitDx=0;exitDy=0;entryX=1;entryY=0.75;entryDx=0;entryDy=0;" edge="1" parent="WIyWlLk6GJQsqaUBKTNV-1" source="AFjkLE0SlQJJLJoKXEfr-82" target="AFjkLE0SlQJJLJoKXEfr-67">
          <mxGeometry relative="1" as="geometry" />
        </mxCell>
        <mxCell id="AFjkLE0SlQJJLJoKXEfr-82" value="Continue" style="whiteSpace=wrap;html=1;rounded=1;glass=0;strokeWidth=1;shadow=0;" vertex="1" parent="WIyWlLk6GJQsqaUBKTNV-1">
          <mxGeometry x="600" y="150" width="120" height="40" as="geometry" />
        </mxCell>
        <mxCell id="AFjkLE0SlQJJLJoKXEfr-90" value="" style="edgeStyle=orthogonalEdgeStyle;rounded=0;orthogonalLoop=1;jettySize=auto;html=1;" edge="1" parent="WIyWlLk6GJQsqaUBKTNV-1" source="AFjkLE0SlQJJLJoKXEfr-85" target="AFjkLE0SlQJJLJoKXEfr-89">
          <mxGeometry relative="1" as="geometry" />
        </mxCell>
        <mxCell id="AFjkLE0SlQJJLJoKXEfr-85" value="Quit" style="whiteSpace=wrap;html=1;rounded=1;glass=0;strokeWidth=1;shadow=0;" vertex="1" parent="WIyWlLk6GJQsqaUBKTNV-1">
          <mxGeometry x="600" y="210" width="120" height="40" as="geometry" />
        </mxCell>
        <mxCell id="AFjkLE0SlQJJLJoKXEfr-91" style="edgeStyle=orthogonalEdgeStyle;rounded=0;orthogonalLoop=1;jettySize=auto;html=1;exitX=0;exitY=0.5;exitDx=0;exitDy=0;entryX=0.25;entryY=1;entryDx=0;entryDy=0;" edge="1" parent="WIyWlLk6GJQsqaUBKTNV-1" source="AFjkLE0SlQJJLJoKXEfr-89" target="AFjkLE0SlQJJLJoKXEfr-80">
          <mxGeometry relative="1" as="geometry" />
        </mxCell>
        <mxCell id="AFjkLE0SlQJJLJoKXEfr-92" style="edgeStyle=orthogonalEdgeStyle;rounded=0;orthogonalLoop=1;jettySize=auto;html=1;exitX=0.5;exitY=1;exitDx=0;exitDy=0;entryX=1;entryY=0.5;entryDx=0;entryDy=0;" edge="1" parent="WIyWlLk6GJQsqaUBKTNV-1" source="AFjkLE0SlQJJLJoKXEfr-89" target="AFjkLE0SlQJJLJoKXEfr-5">
          <mxGeometry relative="1" as="geometry" />
        </mxCell>
        <mxCell id="AFjkLE0SlQJJLJoKXEfr-93" value="Yes" style="edgeLabel;html=1;align=center;verticalAlign=middle;resizable=0;points=[];" vertex="1" connectable="0" parent="AFjkLE0SlQJJLJoKXEfr-92">
          <mxGeometry x="-0.9021" y="-2" relative="1" as="geometry">
            <mxPoint as="offset" />
          </mxGeometry>
        </mxCell>
        <mxCell id="AFjkLE0SlQJJLJoKXEfr-89" value="Are you Sure?" style="rhombus;whiteSpace=wrap;html=1;rounded=1;glass=0;strokeWidth=1;shadow=0;" vertex="1" parent="WIyWlLk6GJQsqaUBKTNV-1">
          <mxGeometry x="620" y="270" width="80" height="80" as="geometry" />
        </mxCell>
        <mxCell id="AFjkLE0SlQJJLJoKXEfr-98" value="" style="edgeStyle=orthogonalEdgeStyle;rounded=0;orthogonalLoop=1;jettySize=auto;html=1;" edge="1" parent="WIyWlLk6GJQsqaUBKTNV-1" source="AFjkLE0SlQJJLJoKXEfr-95" target="AFjkLE0SlQJJLJoKXEfr-97">
          <mxGeometry relative="1" as="geometry" />
        </mxCell>
        <mxCell id="AFjkLE0SlQJJLJoKXEfr-95" value="Ready" style="rounded=1;whiteSpace=wrap;html=1;fontSize=12;glass=0;strokeWidth=1;shadow=0;" vertex="1" parent="WIyWlLk6GJQsqaUBKTNV-1">
          <mxGeometry x="630" y="920" width="120" height="40" as="geometry" />
        </mxCell>
        <mxCell id="AFjkLE0SlQJJLJoKXEfr-99" style="edgeStyle=orthogonalEdgeStyle;rounded=0;orthogonalLoop=1;jettySize=auto;html=1;exitX=0.5;exitY=0;exitDx=0;exitDy=0;entryX=0;entryY=0.75;entryDx=0;entryDy=0;" edge="1" parent="WIyWlLk6GJQsqaUBKTNV-1" source="AFjkLE0SlQJJLJoKXEfr-97" target="AFjkLE0SlQJJLJoKXEfr-54">
          <mxGeometry relative="1" as="geometry" />
        </mxCell>
        <mxCell id="AFjkLE0SlQJJLJoKXEfr-101" value="" style="edgeStyle=orthogonalEdgeStyle;rounded=0;orthogonalLoop=1;jettySize=auto;html=1;" edge="1" parent="WIyWlLk6GJQsqaUBKTNV-1" source="AFjkLE0SlQJJLJoKXEfr-97" target="AFjkLE0SlQJJLJoKXEfr-100">
          <mxGeometry relative="1" as="geometry" />
        </mxCell>
        <mxCell id="AFjkLE0SlQJJLJoKXEfr-102" value="Yes" style="edgeLabel;html=1;align=center;verticalAlign=middle;resizable=0;points=[];" vertex="1" connectable="0" parent="AFjkLE0SlQJJLJoKXEfr-101">
          <mxGeometry x="-0.4" y="-2" relative="1" as="geometry">
            <mxPoint as="offset" />
          </mxGeometry>
        </mxCell>
        <mxCell id="AFjkLE0SlQJJLJoKXEfr-97" value="Yes / No" style="rhombus;whiteSpace=wrap;html=1;rounded=1;glass=0;strokeWidth=1;shadow=0;" vertex="1" parent="WIyWlLk6GJQsqaUBKTNV-1">
          <mxGeometry x="520" y="900" width="80" height="80" as="geometry" />
        </mxCell>
        <mxCell id="AFjkLE0SlQJJLJoKXEfr-100" value="Gameplay" style="whiteSpace=wrap;html=1;rounded=1;glass=0;strokeWidth=1;shadow=0;fillColor=#dae8fc;strokeColor=#6c8ebf;" vertex="1" parent="WIyWlLk6GJQsqaUBKTNV-1">
          <mxGeometry x="360" y="910" width="120" height="60" as="geometry" />
        </mxCell>
        <mxCell id="AFjkLE0SlQJJLJoKXEfr-104" value="???" style="rounded=1;whiteSpace=wrap;html=1;fontSize=12;glass=0;strokeWidth=1;shadow=0;" vertex="1" parent="WIyWlLk6GJQsqaUBKTNV-1">
          <mxGeometry x="1030" y="160" width="120" height="40" as="geometry" />
        </mxCell>
      </root>
    </mxGraphModel>
  </diagram>
</mxfile>
